HIERARCHY
ROOT mixamorig:Hips
{
	OFFSET 0.000000 201.639420 0.000000
	CHANNELS 6 Xposition Yposition Zposition Xrotation Yrotation Zrotation
	JOINT mixamorig:Spine
	{
		OFFSET 0.006200 19.524994 -2.481800
		CHANNELS 3 Xrotation Yrotation Zrotation
		JOINT mixamorig:Spine1
		{
			OFFSET -0.000900 22.835007 -2.825400
			CHANNELS 3 Xrotation Yrotation Zrotation
			JOINT mixamorig:Spine2
			{
				OFFSET -0.020600 26.552490 -3.193300
				CHANNELS 3 Xrotation Yrotation Zrotation
				JOINT mixamorig:Neck
				{
					OFFSET -0.060000 30.701813 1.352200
					CHANNELS 3 Xrotation Yrotation Zrotation
					JOINT mixamorig:Head
					{
						OFFSET -0.087200 22.547607 3.670900
						CHANNELS 3 Xrotation Yrotation Zrotation
						JOINT mixamorig:HeadTop_End
						{
							OFFSET -0.830600 40.355194 7.893500
							CHANNELS 3 Xrotation Yrotation Zrotation
							End Site
							{
								OFFSET 0.000000 30.592346 0.000000
							}
						}
						JOINT mixamorig:RightEye
						{
							OFFSET -6.302100 18.118591 16.197100
							CHANNELS 3 Xrotation Yrotation Zrotation
							End Site
							{
								OFFSET 0.000000 30.592346 0.000000
							}
						}
						JOINT mixamorig:LeftEye
						{
							OFFSET 6.741500 18.382690 16.401899
							CHANNELS 3 Xrotation Yrotation Zrotation
							End Site
							{
								OFFSET 0.000000 30.592346 0.000000
							}
						}
					}
				}
				JOINT mixamorig:LeftShoulder
				{
					OFFSET 11.924900 18.230499 1.425400
					CHANNELS 3 Xrotation Yrotation Zrotation
					JOINT mixamorig:LeftArm
					{
						OFFSET 25.435989 -0.697632 -5.229300
						CHANNELS 3 Xrotation Yrotation Zrotation
						JOINT mixamorig:LeftForeArm
						{
							OFFSET 54.684776 0.000000 0.000000
							CHANNELS 3 Xrotation Yrotation Zrotation
							JOINT mixamorig:LeftHand
							{
								OFFSET 55.098175 0.000000 0.000000
								CHANNELS 3 Xrotation Yrotation Zrotation
								JOINT mixamorig:LeftHandMiddle1
								{
									OFFSET 23.369751 0.000000 0.000000
									CHANNELS 3 Xrotation Yrotation Zrotation
									JOINT mixamorig:LeftHandMiddle2
									{
										OFFSET 6.378677 0.000000 0.000000
										CHANNELS 3 Xrotation Yrotation Zrotation
										JOINT mixamorig:LeftHandMiddle3
										{
											OFFSET 6.148331 0.000000 0.000000
											CHANNELS 3 Xrotation Yrotation Zrotation
											JOINT mixamorig:LeftHandMiddle4
											{
												OFFSET 6.582504 0.000000 0.000000
												CHANNELS 3 Xrotation Yrotation Zrotation
												End Site
												{
													OFFSET -1.168900 6.395691 1.028606
												}
											}
										}
									}
								}
								JOINT mixamorig:LeftHandThumb1
								{
									OFFSET 7.235672 -3.848206 5.434273
									CHANNELS 3 Xrotation Yrotation Zrotation
									JOINT mixamorig:LeftHandThumb2
									{
										OFFSET 6.568451 -3.792297 3.792300
										CHANNELS 3 Xrotation Yrotation Zrotation
										JOINT mixamorig:LeftHandThumb3
										{
											OFFSET 6.063080 -3.500519 3.500518
											CHANNELS 3 Xrotation Yrotation Zrotation
											JOINT mixamorig:LeftHandThumb4
											{
												OFFSET 4.793182 -2.767334 2.767349
												CHANNELS 3 Xrotation Yrotation Zrotation
												End Site
												{
													OFFSET 0.101639 6.054260 1.275483
												}
											}
										}
									}
								}
								JOINT mixamorig:LeftHandIndex1
								{
									OFFSET 23.101074 -0.309540 4.992809
									CHANNELS 3 Xrotation Yrotation Zrotation
									JOINT mixamorig:LeftHandIndex2
									{
										OFFSET 6.226883 0.000000 0.000000
										CHANNELS 3 Xrotation Yrotation Zrotation
										JOINT mixamorig:LeftHandIndex3
										{
											OFFSET 6.094330 0.000000 0.000000
											CHANNELS 3 Xrotation Yrotation Zrotation
											JOINT mixamorig:LeftHandIndex4
											{
												OFFSET 5.482605 0.000000 0.000000
												CHANNELS 3 Xrotation Yrotation Zrotation
												End Site
												{
													OFFSET -1.427902 5.233032 0.797164
												}
											}
										}
									}
								}
								JOINT mixamorig:LeftHandRing1
								{
									OFFSET 22.299240 0.021149 -3.964172
									CHANNELS 3 Xrotation Yrotation Zrotation
									JOINT mixamorig:LeftHandRing2
									{
										OFFSET 6.321869 0.000000 0.000000
										CHANNELS 3 Xrotation Yrotation Zrotation
										JOINT mixamorig:LeftHandRing3
										{
											OFFSET 5.899796 0.000000 0.000000
											CHANNELS 3 Xrotation Yrotation Zrotation
											JOINT mixamorig:LeftHandRing4
											{
												OFFSET 6.517899 0.000000 0.000000
												CHANNELS 3 Xrotation Yrotation Zrotation
												End Site
												{
													OFFSET -1.637299 6.232208 0.980890
												}
											}
										}
									}
								}
								JOINT mixamorig:LeftHandPinky1
								{
									OFFSET 20.463791 -0.302338 -8.562233
									CHANNELS 3 Xrotation Yrotation Zrotation
									JOINT mixamorig:LeftHandPinky2
									{
										OFFSET 6.908646 0.000000 0.000000
										CHANNELS 3 Xrotation Yrotation Zrotation
										JOINT mixamorig:LeftHandPinky3
										{
											OFFSET 4.622849 0.000000 0.000000
											CHANNELS 3 Xrotation Yrotation Zrotation
											JOINT mixamorig:LeftHandPinky4
											{
												OFFSET 5.216080 0.000000 0.000000
												CHANNELS 3 Xrotation Yrotation Zrotation
												End Site
												{
													OFFSET -0.606308 5.116241 0.814926
												}
											}
										}
									}
								}
							}
						}
					}
				}
				JOINT mixamorig:RightShoulder
				{
					OFFSET -12.001300 18.284088 1.348900
					CHANNELS 3 Xrotation Yrotation Zrotation
					JOINT mixamorig:RightArm
					{
						OFFSET -25.308500 -0.751312 -5.164599
						CHANNELS 3 Xrotation Yrotation Zrotation
						JOINT mixamorig:RightForeArm
						{
							OFFSET -54.684429 0.000000 0.000000
							CHANNELS 3 Xrotation Yrotation Zrotation
							JOINT mixamorig:RightHand
							{
								OFFSET -55.150291 0.000000 0.000000
								CHANNELS 3 Xrotation Yrotation Zrotation
								JOINT mixamorig:RightHandMiddle1
								{
									OFFSET -23.317566 0.000000 0.000000
									CHANNELS 3 Xrotation Yrotation Zrotation
									JOINT mixamorig:RightHandMiddle2
									{
										OFFSET -6.378403 0.000000 0.000000
										CHANNELS 3 Xrotation Yrotation Zrotation
										JOINT mixamorig:RightHandMiddle3
										{
											OFFSET -6.148193 0.000000 0.000000
											CHANNELS 3 Xrotation Yrotation Zrotation
											JOINT mixamorig:RightHandMiddle4
											{
												OFFSET -6.583389 0.000000 0.000000
												CHANNELS 3 Xrotation Yrotation Zrotation
												End Site
												{
													OFFSET 1.171692 6.395905 1.029786
												}
											}
										}
									}
								}
								JOINT mixamorig:RightHandThumb1
								{
									OFFSET -7.190521 -3.860474 5.435846
									CHANNELS 3 Xrotation Yrotation Zrotation
									JOINT mixamorig:RightHandThumb2
									{
										OFFSET -6.567429 -3.791718 3.791708
										CHANNELS 3 Xrotation Yrotation Zrotation
										JOINT mixamorig:RightHandThumb3
										{
											OFFSET -6.062469 -3.500153 3.500166
											CHANNELS 3 Xrotation Yrotation Zrotation
											JOINT mixamorig:RightHandThumb4
											{
												OFFSET -4.792618 -2.767029 2.767022
												CHANNELS 3 Xrotation Yrotation Zrotation
												End Site
												{
													OFFSET -0.100327 6.053253 1.276754
												}
											}
										}
									}
								}
								JOINT mixamorig:RightHandIndex1
								{
									OFFSET -23.048981 -0.310791 4.992554
									CHANNELS 3 Xrotation Yrotation Zrotation
									JOINT mixamorig:RightHandIndex2
									{
										OFFSET -6.227539 0.000000 0.000000
										CHANNELS 3 Xrotation Yrotation Zrotation
										JOINT mixamorig:RightHandIndex3
										{
											OFFSET -6.095047 0.000000 0.000000
											CHANNELS 3 Xrotation Yrotation Zrotation
											JOINT mixamorig:RightHandIndex4
											{
												OFFSET -5.484772 0.000000 0.000000
												CHANNELS 3 Xrotation Yrotation Zrotation
												End Site
												{
													OFFSET 1.420593 5.237305 0.797056
												}
											}
										}
									}
								}
								JOINT mixamorig:RightHandRing1
								{
									OFFSET -22.246323 0.020569 -3.963762
									CHANNELS 3 Xrotation Yrotation Zrotation
									JOINT mixamorig:RightHandRing2
									{
										OFFSET -6.322128 0.000000 0.000000
										CHANNELS 3 Xrotation Yrotation Zrotation
										JOINT mixamorig:RightHandRing3
										{
											OFFSET -5.900024 0.000000 0.000000
											CHANNELS 3 Xrotation Yrotation Zrotation
											JOINT mixamorig:RightHandRing4
											{
												OFFSET -6.518356 0.000000 0.000000
												CHANNELS 3 Xrotation Yrotation Zrotation
												End Site
												{
													OFFSET 1.636398 6.232697 0.982186
												}
											}
										}
									}
								}
								JOINT mixamorig:RightHandPinky1
								{
									OFFSET -20.411011 -0.303314 -8.561701
									CHANNELS 3 Xrotation Yrotation Zrotation
									JOINT mixamorig:RightHandPinky2
									{
										OFFSET -6.907349 0.000000 0.000000
										CHANNELS 3 Xrotation Yrotation Zrotation
										JOINT mixamorig:RightHandPinky3
										{
											OFFSET -4.623840 0.000000 0.000000
											CHANNELS 3 Xrotation Yrotation Zrotation
											JOINT mixamorig:RightHandPinky4
											{
												OFFSET -5.218353 0.000000 0.000000
												CHANNELS 3 Xrotation Yrotation Zrotation
												End Site
												{
													OFFSET 0.602097 5.118835 0.816273
												}
											}
										}
									}
								}
							}
						}
					}
				}
			}
		}
	}
	JOINT mixamorig:LeftUpLeg
	{
		OFFSET 18.168400 -13.561905 -0.039000
		CHANNELS 3 Xrotation Yrotation Zrotation
		JOINT mixamorig:LeftLeg
		{
			OFFSET 0.577358 -80.825211 -3.695000
			CHANNELS 3 Xrotation Yrotation Zrotation
			JOINT mixamorig:LeftFoot
			{
				OFFSET -0.577356 -83.370262 -6.520700
				CHANNELS 3 Xrotation Yrotation Zrotation
				JOINT mixamorig:LeftToeBase
				{
					OFFSET 0.750401 -20.798306 25.135401
					CHANNELS 3 Xrotation Yrotation Zrotation
					JOINT mixamorig:LeftToe_End
					{
						OFFSET -0.000500 0.001200 19.917799
						CHANNELS 3 Xrotation Yrotation Zrotation
						End Site
						{
							OFFSET 0.000000 19.917805 0.000000
						}
					}
				}
			}
		}
	}
	JOINT mixamorig:RightUpLeg
	{
		OFFSET -18.162500 -13.585098 -0.041000
		CHANNELS 3 Xrotation Yrotation Zrotation
		JOINT mixamorig:RightLeg
		{
			OFFSET -0.595024 -80.945297 -3.631900
			CHANNELS 3 Xrotation Yrotation Zrotation
			JOINT mixamorig:RightFoot
			{
				OFFSET 0.595024 -83.218193 -6.561200
				CHANNELS 3 Xrotation Yrotation Zrotation
				JOINT mixamorig:RightToeBase
				{
					OFFSET -0.753601 -20.807106 25.115000
					CHANNELS 3 Xrotation Yrotation Zrotation
					JOINT mixamorig:RightToe_End
					{
						OFFSET 0.000299 0.001700 19.918200
						CHANNELS 3 Xrotation Yrotation Zrotation
						End Site
						{
							OFFSET 0.000000 19.918203 0.000000
						}
					}
				}
			}
		}
	}
}
MOTION
Frames: 5
Frame Time: 0.033333
0.549208 195.474976 -0.268274 -6.404983 -28.460273 -6.301336 11.265703 8.178874 1.186205 3.913842 2.064934 -0.337775 3.913534 2.058633 -0.345560 -3.054716 2.539212 0.243431 -8.070335 15.259939 -5.602696 0.000000 0.000000 0.000000 0.000000 0.000000 0.000000 0.000000 0.000000 0.000000 3.222090 -0.335983 -3.147222 -11.870362 15.958908 -70.581262 0.000003 -15.547741 0.000001 23.889237 4.744362 0.645968 0.574781 4.751694 -24.071209 0.609745 2.604309 -26.350252 0.476308 2.315731 -23.242142 0.000001 0.000003 0.000000 -1.395951 1.756335 3.377287 6.494727 16.428891 1.706533 -7.491825 -1.347766 12.902596 0.000004 -0.000000 -0.000002 -0.534375 0.261052 -17.550506 0.608387 2.601565 -26.320359 0.488227 2.343290 -23.535678 0.000001 0.000002 -0.000002 2.391801 8.821721 -23.793563 0.615544 2.615954 -26.477408 0.470610 2.302441 -23.100916 -0.000000 0.000001 0.000002 1.979709 11.200904 -23.603602 0.616209 2.617315 -26.492294 0.756682 2.881687 -29.419800 0.000000 0.000001 -0.000001 3.306104 5.005843 13.883393 -12.772498 29.550745 60.452741 -0.000003 11.784413 -0.000021 42.051528 1.133761 2.586117 0.432323 -4.134343 23.406143 0.486374 -2.073963 26.393929 0.379978 -1.844220 23.281972 0.000001 -0.000002 0.000001 -2.439339 0.243586 -2.763581 6.815517 -18.242694 -2.425232 -5.635297 -4.574319 -14.514502 0.000000 -0.000003 -0.000005 -0.574407 0.242067 16.805593 0.485291 -2.071772 26.364020 0.389479 -1.866155 23.575894 -0.000000 0.000001 -0.000001 2.205698 -8.232524 23.197641 0.491002 -2.083248 26.521228 0.375432 -1.833622 23.140575 0.000000 0.000001 -0.000001 1.770978 -10.609372 23.050212 0.491550 -2.084320 26.536139 0.603526 -2.294780 29.466806 -0.000003 0.000000 -0.000001 -38.029076 -1.425116 5.234307 54.523457 3.050327 0.458841 10.185390 1.256566 -1.907275 -0.854821 -0.000001 -0.000001 -0.000001 -0.000001 0.000001 -3.440925 -9.316413 9.270588 23.523496 -6.572031 -0.073191 -13.078935 1.044759 -4.976904 -1.136775 0.000617 -0.228189 -0.000000 0.000004 -0.000000 
-2.485441 195.233261 -0.129492 -6.441334 -30.076256 -6.532321 11.116069 9.012919 0.881976 3.925719 2.290220 -0.322450 3.923994 2.285974 -0.329814 -3.107370 2.555181 0.403225 -8.335345 15.596214 -5.236467 -0.000000 0.000000 -0.000000 -0.000000 0.000000 -0.000000 -0.000000 0.000000 -0.000000 3.212484 0.142860 -2.758586 -10.893701 17.173869 -71.284041 -0.000000 -15.530214 0.000006 25.932097 4.904123 0.346036 0.574782 4.751693 -24.071211 0.609745 2.604310 -26.350250 0.476309 2.315735 -23.242137 -0.000000 0.000003 -0.000004 -1.395952 1.756332 3.377282 6.494732 16.428888 1.706530 -7.491822 -1.347760 12.902603 0.000002 0.000002 0.000002 -0.534377 0.261054 -17.550507 0.608386 2.601564 -26.320359 0.488235 2.343292 -23.535678 -0.000000 0.000000 0.000001 2.391799 8.821722 -23.793568 0.615539 2.615955 -26.477413 0.470606 2.302443 -23.100917 0.000000 0.000001 -0.000002 1.979714 11.200902 -23.603599 0.616206 2.617314 -26.492289 0.756682 2.881688 -29.419804 0.000000 -0.000002 -0.000001 3.207954 5.709827 13.465981 -13.222950 31.446775 60.872032 -0.000005 12.487989 -0.000021 40.870274 0.973201 2.918780 0.432325 -4.134345 23.406143 0.486381 -2.073964 26.393929 0.379973 -1.844221 23.281970 -0.000001 -0.000006 0.000001 -2.439335 0.243583 -2.763577 6.815517 -18.242694 -2.425231 -5.635297 -4.574318 -14.514502 0.000004 0.000002 -0.000001 -0.574406 0.242065 16.805597 0.485290 -2.071772 26.364018 0.389485 -1.866158 23.575899 0.000002 0.000002 -0.000003 2.205698 -8.232527 23.197646 0.490999 -2.083248 26.521234 0.375431 -1.833621 23.140577 0.000002 0.000001 0.000000 1.770981 -10.609374 23.050220 0.491545 -2.084318 26.536142 0.603527 -2.294783 29.466806 0.000002 -0.000001 0.000001 -38.443805 0.065078 2.961492 52.856443 2.579176 0.452183 9.550493 1.670670 -2.615835 -0.860908 -0.000010 -0.000001 -0.000000 -0.000000 0.000001 -2.386016 -8.831837 10.375811 22.634344 -5.560357 -0.123707 -13.214866 1.209726 -5.991493 -1.145680 0.000613 -0.234447 -0.000000 -0.000004 0.000000 
-5.660860 194.872971 0.075835 -6.365175 -31.744995 -6.793522 10.859593 9.744966 0.536196 3.899956 2.494339 -0.310109 3.896348 2.492221 -0.316471 -3.183235 2.580209 0.570577 -8.502854 15.966862 -4.890547 -0.000000 -0.000000 0.000000 -0.000000 -0.000000 0.000000 -0.000000 -0.000000 0.000000 3.194073 0.536706 -2.338643 -9.891466 17.886845 -72.155061 0.000000 -15.441173 -0.000005 27.234937 4.859065 0.120848 0.574779 4.751694 -24.071207 0.609739 2.604310 -26.350248 0.476308 2.315730 -23.242133 -0.000001 0.000005 0.000002 -1.395953 1.756332 3.377286 6.494730 16.428888 1.706530 -7.491826 -1.347763 12.902597 0.000004 -0.000001 0.000000 -0.534379 0.261053 -17.550507 0.608383 2.601564 -26.320359 0.488230 2.343290 -23.535678 -0.000001 0.000001 -0.000002 2.391804 8.821720 -23.793565 0.615542 2.615954 -26.477406 0.470607 2.302443 -23.100916 -0.000001 0.000000 0.000001 1.979706 11.200902 -23.603597 0.616203 2.617312 -26.492289 0.756683 2.881685 -29.419800 -0.000001 -0.000001 0.000001 3.149675 6.137214 13.189789 -13.694685 33.577801 61.610902 -0.000013 13.074410 0.000039 39.965407 1.089276 2.838622 0.432324 -4.134347 23.406143 0.486376 -2.073964 26.393931 0.379974 -1.844221 23.281977 0.000002 -0.000000 -0.000000 -2.439335 0.243583 -2.763577 6.815514 -18.242692 -2.425232 -5.635301 -4.574319 -14.514504 -0.000002 0.000002 0.000001 -0.574409 0.242063 16.805597 0.485291 -2.071772 26.364015 0.389482 -1.866156 23.575897 -0.000004 0.000002 -0.000004 2.205699 -8.232528 23.197646 0.491001 -2.083249 26.521232 0.375433 -1.833619 23.140572 -0.000002 -0.000002 0.000002 1.770978 -10.609376 23.050215 0.491552 -2.084316 26.536137 0.603530 -2.294783 29.466806 0.000001 0.000000 0.000003 -38.151080 1.622352 0.872726 50.526802 2.350092 0.517712 8.550341 3.319188 -3.733191 -0.785028 0.000002 -0.000002 0.000001 0.000001 0.000000 -1.364792 -8.345368 11.559488 21.779573 -4.481441 -0.186152 -13.398723 1.384460 -7.009223 -1.157240 0.000701 -0.242423 -0.000000 0.000001 -0.000000 
-8.929264 194.431335 0.253480 -6.094476 -33.286029 -6.979725 10.487544 10.201399 0.160458 3.818194 2.635205 -0.294432 3.812437 2.635049 -0.299473 -3.292004 2.628829 0.713073 -8.577223 16.385289 -4.592044 0.000000 -0.000000 0.000000 0.000000 -0.000000 0.000000 0.000000 -0.000000 0.000000 3.173299 0.836750 -1.956099 -8.896887 18.065555 -73.059945 -0.000000 -15.343894 -0.000017 27.761724 4.647328 -0.347072 0.574781 4.751695 -24.071207 0.609747 2.604309 -26.350247 0.476307 2.315735 -23.242142 0.000001 0.000003 -0.000001 -1.395953 1.756336 3.377288 6.494731 16.428886 1.706531 -7.491828 -1.347765 12.902599 0.000003 -0.000002 -0.000005 -0.534383 0.261056 -17.550506 0.608387 2.601564 -26.320356 0.488231 2.343294 -23.535672 -0.000002 0.000000 -0.000000 2.391798 8.821725 -23.793567 0.615541 2.615953 -26.477413 0.470610 2.302441 -23.100917 0.000002 0.000002 0.000003 1.979708 11.200907 -23.603600 0.616207 2.617311 -26.492291 0.756684 2.881689 -29.419804 0.000000 0.000001 -0.000001 3.122729 6.333620 13.046194 -13.754834 36.141202 62.462319 0.000009 13.970416 -0.000012 39.269220 1.460456 2.530060 0.432326 -4.134345 23.406141 0.486380 -2.073964 26.393931 0.379977 -1.844220 23.281968 0.000001 -0.000001 0.000000 -2.439333 0.243584 -2.763579 6.815519 -18.242694 -2.425233 -5.635299 -4.574316 -14.514502 0.000000 0.000002 0.000000 -0.574403 0.242065 16.805597 0.485286 -2.071772 26.364020 0.389483 -1.866157 23.575895 0.000001 -0.000002 0.000000 2.205699 -8.232529 23.197646 0.490999 -2.083248 26.521230 0.375433 -1.833619 23.140573 0.000002 0.000000 0.000001 1.770982 -10.609375 23.050215 0.491548 -2.084317 26.536139 0.603529 -2.294782 29.466806 0.000000 0.000001 -0.000001 -37.201848 3.086103 -1.090824 47.363667 2.241242 0.632147 7.618599 5.886129 -5.415648 -0.732436 0.000002 0.000000 -0.000001 -0.000000 0.000000 -0.450877 -7.779684 12.806448 20.864090 -3.570471 -0.246628 -13.576593 1.548435 -8.008566 -1.154026 0.000722 -0.245963 -0.000000 -0.000001 0.000000 
-12.215532 193.971252 0.403226 -5.551187 -34.590233 -6.997508 9.987348 10.286869 -0.188384 3.676460 2.685636 -0.278396 3.668892 2.686992 -0.281917 -3.427454 2.711394 0.789696 -8.686497 16.846390 -4.336123 -0.000000 0.000000 0.000000 -0.000000 0.000000 0.000000 -0.000000 0.000000 0.000000 3.160711 1.058515 -1.724181 -8.147847 17.885178 -73.820172 0.000002 -15.259899 0.000006 28.187334 4.302094 -1.056983 0.574785 4.751693 -24.071207 0.609743 2.604312 -26.350252 0.476313 2.315735 -23.242142 0.000001 0.000000 -0.000000 -1.395953 1.756332 3.377283 6.494729 16.428891 1.706533 -7.491824 -1.347760 12.902600 0.000003 -0.000003 -0.000004 -0.534381 0.261053 -17.550507 0.608387 2.601565 -26.320364 0.488231 2.343292 -23.535681 0.000001 0.000003 0.000000 2.391802 8.821724 -23.793568 0.615544 2.615953 -26.477411 0.470607 2.302444 -23.100917 -0.000005 -0.000002 0.000000 1.979707 11.200905 -23.603602 0.616209 2.617317 -26.492296 0.756684 2.881692 -29.419800 -0.000002 -0.000000 0.000002 3.116332 6.379329 13.000223 -13.094095 39.009273 63.262612 0.000004 15.824286 -0.000002 38.557453 1.919036 2.423618 0.432329 -4.134344 23.406143 0.486379 -2.073964 26.393929 0.379976 -1.844220 23.281975 0.000002 0.000002 -0.000002 -2.439334 0.243583 -2.763581 6.815516 -18.242694 -2.425234 -5.635299 -4.574320 -14.514500 0.000001 -0.000001 0.000001 -0.574403 0.242065 16.805598 0.485291 -2.071772 26.364021 0.389486 -1.866157 23.575899 0.000002 0.000001 0.000000 2.205698 -8.232529 23.197645 0.490999 -2.083248 26.521230 0.375428 -1.833620 23.140578 -0.000002 -0.000001 -0.000001 1.770979 -10.609373 23.050217 0.491547 -2.084318 26.536140 0.603532 -2.294785 29.466812 -0.000003 -0.000000 -0.000002 -35.768051 4.421338 -2.964834 43.343598 2.274531 0.787474 7.179101 9.107262 -7.558844 -1.626115 -0.021919 1.342952 0.000001 0.000000 0.000001 0.345552 -7.061448 14.089408 19.694922 -2.969296 -0.294473 -13.658729 1.693348 -8.997266 -1.107608 0.000599 -0.225105 -0.000000 0.000003 0.000000 
